<svg viewBox="0 0 3600 2769" fill="none" xmlns="http://www.w3.org/2000/svg">
    <g id="STM01" clip-path="url(#clip0_1874_211)">
        <rect width="3600" height="2769" fill="#0A0D14"/>

        <mask id="path-2-outside-1_1874_211" maskUnits="userSpaceOnUse" x="507" y="310" width="1706" height="2185" fill="black">
            <rect fill="white" x="507" y="310" width="1706" height="2185"/>
            <path d="M2207 1312.11L2207.45 1312.55L2207 1312.77V1313H2206.52L1929.22 1447L1651.93 1313H1651V772H1572V2260L1572.22 2260.22L1042.61 2491.5L513 2260.22L513.223 2260H513V313H2207V1312.11Z"/>
        </mask>
        <path d="M2207 1312.11L2207.45 1312.55L2207 1312.77V1313H2206.52L1929.22 1447L1651.93 1313H1651V772H1572V2260L1572.22 2260.22L1042.61 2491.5L513 2260.22L513.223 2260H513V313H2207V1312.11Z" fill="#1E1C1C"/>
        <path d="M2207 1312.11H2204V1313.35L2204.88 1314.23L2207 1312.11ZM2207.45 1312.55L2208.75 1315.25L2212.56 1313.42L2209.57 1310.43L2207.45 1312.55ZM2207 1312.77L2205.7 1310.07L2204 1310.89V1312.77H2207ZM2207 1313V1316H2210V1313H2207ZM2206.52 1313V1310H2205.83L2205.22 1310.3L2206.52 1313ZM1929.22 1447L1927.92 1449.7L1929.22 1450.33L1930.53 1449.7L1929.22 1447ZM1651.93 1313L1653.23 1310.3L1652.61 1310H1651.93V1313ZM1651 1313H1648V1316H1651V1313ZM1651 772H1654V769H1651V772ZM1572 772V769H1569V772H1572ZM1572 2260H1569V2261.24L1569.88 2262.12L1572 2260ZM1572.22 2260.22L1573.42 2262.97L1577.45 2261.21L1574.34 2258.1L1572.22 2260.22ZM1042.61 2491.5L1041.41 2494.25L1042.61 2494.77L1043.81 2494.25L1042.61 2491.5ZM513 2260.22L510.879 2258.1L507.768 2261.21L511.799 2262.97L513 2260.22ZM513.223 2260L515.344 2262.12L520.465 2257H513.223V2260ZM513 2260H510V2263H513V2260ZM513 313V310H510V313H513ZM2207 313H2210V310H2207V313ZM2207 1312.11L2204.88 1314.23L2205.33 1314.67L2207.45 1312.55L2209.57 1310.43L2209.12 1309.98L2207 1312.11ZM2207.45 1312.55L2206.14 1309.85L2205.7 1310.07L2207 1312.77L2208.3 1315.47L2208.75 1315.25L2207.45 1312.55ZM2207 1312.77H2204V1313H2207H2210V1312.77H2207ZM2207 1313V1310H2206.52V1313V1316H2207V1313ZM2206.52 1313L2205.22 1310.3L1927.92 1444.3L1929.22 1447L1930.53 1449.7L2207.83 1315.7L2206.52 1313ZM1929.22 1447L1930.53 1444.3L1653.23 1310.3L1651.93 1313L1650.62 1315.7L1927.92 1449.7L1929.22 1447ZM1651.93 1313V1310H1651V1313V1316H1651.93V1313ZM1651 1313H1654V772H1651H1648V1313H1651ZM1651 772V769H1572V772V775H1651V772ZM1572 772H1569V2260H1572H1575V772H1572ZM1572 2260L1569.88 2262.12L1570.1 2262.34L1572.22 2260.22L1574.34 2258.1L1574.12 2257.88L1572 2260ZM1572.22 2260.22L1571.02 2257.47L1041.41 2488.75L1042.61 2491.5L1043.81 2494.25L1573.42 2262.97L1572.22 2260.22ZM1042.61 2491.5L1043.81 2488.75L514.201 2257.47L513 2260.22L511.799 2262.97L1041.41 2494.25L1042.61 2491.5ZM513 2260.22L515.121 2262.34L515.344 2262.12L513.223 2260L511.101 2257.88L510.879 2258.1L513 2260.22ZM513.223 2260V2257H513V2260V2263H513.223V2260ZM513 2260H516V313H513H510V2260H513ZM513 313V316H2207V313V310H513V313ZM2207 313H2204V1312.11H2207H2210V313H2207Z" fill="#5E5E5E" mask="url(#path-2-outside-1_1874_211)"/>
        <path d="M2817 2328.93C2817 2328.97 2817.02 2329.02 2817.05 2329.05C2817.14 2329.14 2817.11 2329.28 2817.01 2329.33L2657.37 2409.82C2650.29 2413.39 2641.93 2413.39 2634.86 2409.82L2475.1 2329.27C2475.05 2329.25 2475.04 2329.18 2475.08 2329.14L2475.11 2329.11C2475.15 2329.07 2475.12 2329 2475.07 2329C2475.03 2329 2475 2328.97 2475 2328.93V2030C2475 2016.19 2486.19 2005 2500 2005H2792C2805.81 2005 2817 2016.19 2817 2030V2328.93Z" fill="#1E1C1C"/>
        <path d="M2475.11 2329.11L2474.05 2328.05L2474.02 2328.08L2475.08 2329.14ZM2475 2328.93H2476.5V2030H2475H2473.5V2328.93H2475ZM2500 2005V2006.5H2792V2005V2003.5H2500V2005ZM2817 2030H2815.5V2328.93H2817H2818.5V2030H2817ZM2792 2005V2006.5C2804.98 2006.5 2815.5 2017.02 2815.5 2030H2817H2818.5C2818.5 2015.36 2806.64 2003.5 2792 2003.5V2005ZM2475 2030H2476.5C2476.5 2017.02 2487.02 2006.5 2500 2006.5V2005V2003.5C2485.36 2003.5 2473.5 2015.36 2473.5 2030H2475ZM2475.07 2329V2327.5C2475.86 2327.5 2476.5 2328.14 2476.5 2328.93H2475H2473.5C2473.5 2329.8 2474.2 2330.5 2475.07 2330.5V2329ZM2475.11 2329.11L2476.17 2330.17C2477.16 2329.19 2476.46 2327.5 2475.07 2327.5V2329V2330.5C2473.79 2330.5 2473.15 2328.95 2474.05 2328.05L2475.11 2329.11ZM2475.1 2329.27L2475.78 2327.93C2476.64 2328.37 2476.82 2329.52 2476.14 2330.2L2475.08 2329.14L2474.02 2328.08C2473.26 2328.84 2473.46 2330.13 2474.43 2330.61L2475.1 2329.27ZM2657.37 2409.82L2656.69 2408.49C2650.04 2411.84 2642.19 2411.84 2635.53 2408.49L2634.86 2409.82L2634.18 2411.16C2641.68 2414.95 2650.54 2414.95 2658.04 2411.16L2657.37 2409.82ZM2817.05 2329.05L2815.99 2330.11C2815.35 2329.47 2815.53 2328.4 2816.33 2327.99L2817.01 2329.33L2817.68 2330.67C2818.7 2330.16 2818.92 2328.8 2818.11 2327.99L2817.05 2329.05ZM2817.05 2329.05L2818.11 2327.99C2818.36 2328.24 2818.5 2328.58 2818.5 2328.93H2817H2815.5C2815.5 2329.37 2815.68 2329.8 2815.99 2330.11L2817.05 2329.05Z" fill="#7F3779"/>
        
        <text id="COAL STORAGE" transform="translate(202 1393)" fill="#EFAA8A" style="white-space: pre" xml:space="preserve" font-family="Share Tech Mono" font-size="48" letter-spacing="0em"><tspan x="54.1562" y="42.432">COAL </tspan><tspan x="15.2734" y="96.432">STORAGE</tspan></text>
        <text id="AMBIENT AIR" transform="translate(1698 2064)" fill="#90ED9B" style="white-space: pre" xml:space="preserve" font-family="Share Tech Mono" font-size="48" letter-spacing="0em"><tspan x="0.929688" y="42.432">AMBIENT AIR</tspan></text>
        <text id="WATER TANK" transform="translate(2783 404)" fill="#90EAE6" style="white-space: pre" xml:space="preserve" font-family="Share Tech Mono" font-size="48" letter-spacing="0em"><tspan x="28.3906" y="42.432">WATER TANK</tspan></text>
        <text id="BOTTOM ASH" fill="#977A58" style="white-space: pre" xml:space="preserve" font-family="Share Tech Mono" font-size="48" letter-spacing="0em"><tspan x="1233.43" y="2582.43">BOTTOM  ASH</tspan></text>
        <text id="FLY ASH" fill="#977A58" style="white-space: pre" xml:space="preserve" font-family="Share Tech Mono" font-size="48" letter-spacing="0em"><tspan x="2842.27" y="2503.43">FLY ASH</tspan></text>
        <text id="MAIN STEAM" fill="#ECE998" style="white-space: pre" xml:space="preserve" font-family="Share Tech Mono" font-size="48" letter-spacing="0em"><tspan x="2049.39" y="178.432">MAIN STEAM</tspan></text>

        <text id="TRAVELLING GRATE" fill="#D2D2D2" style="white-space: pre" xml:space="preserve" font-family="Share Tech Mono" font-size="48" letter-spacing="0em"><tspan x="834.125" y="2139.43">TRAVELLING GRATE</tspan></text>
        <rect x="525" y="2038" width="1034" height="159" rx="79.5" fill="#3A3A3A" stroke="#777777" stroke-width="10" stroke-linecap="round" stroke-dasharray="25 25"/>

        <rect id="GLOW FIRE" x="513" y="757" width="1059" height="1362" fill="url(#paint4_radial_1874_211)"/>
        <g id="SMOKE">
            <ellipse id="Ellipse 178" cx="3408" cy="619.5" rx="48" ry="45.5" fill="#6D6D6D"/>
            <ellipse id="Ellipse 179" cx="3357" cy="699.5" rx="24" ry="22.5" fill="#6D6D6D"/>
        </g>


        <g id="STEAM DRUM">
            <circle id="eqp SD" cx="561" cy="341" r="187.5" fill="url(#paint0_linear_1874_211)" stroke="#5EB1BF" stroke-width="3"/>
            <text fill="#B5CCFF" style="white-space: pre" xml:space="preserve" font-family="Share Tech Mono" font-size="48" letter-spacing="0em"><tspan x="431.891" y="355.432">STEAM DRUM</tspan></text>
        </g>

        <g id="FD FAN">
            <circle id="eqp FDF" cx="2107" cy="2231" r="100" fill="#1E1C1C" stroke="#5E5E5E" stroke-width="3"/>
            <path id="blade FDF" d="M2130.18 2302.33C2115.11 2307.22 2098.89 2307.22 2083.82 2302.33L2107 2231L2130.18 2302.33ZM2046.32 2275.08C2037.01 2262.27 2032 2246.84 2032 2231H2107L2046.32 2275.08ZM2182 2231C2182 2246.84 2176.99 2262.27 2167.68 2275.08L2107 2231H2182ZM2107 2231L2046.32 2186.92C2055.63 2174.1 2068.76 2164.57 2083.82 2159.67L2107 2231ZM2130.18 2159.67C2145.24 2164.57 2158.37 2174.1 2167.68 2186.92L2107 2231L2130.18 2159.67Z" fill="#5E5E5E"/>
            <text transform="translate(2029 2339)" fill="white" style="white-space: pre" xml:space="preserve" font-family="Share Tech Mono" font-size="48" letter-spacing="0em"><tspan x="0.234375" y="42.432">FD FAN</tspan></text>
        </g>

        <g id="BFP">
            <circle cx="2644" cy="966" r="100" fill="#1E1C1C" stroke="#5E5E5E" stroke-width="3"/>
            <path id="blade BF P" d="M2667.18 1037.33C2652.11 1042.22 2635.89 1042.22 2620.82 1037.33L2644 966.001L2667.18 1037.33ZM2583.32 1010.08C2574.01 997.271 2569 981.839 2569 966.001H2644L2583.32 1010.08ZM2719 966.001C2719 981.839 2713.99 997.271 2704.68 1010.08L2644 966.001H2719ZM2644 966.001L2583.32 921.917C2592.63 909.104 2605.76 899.566 2620.82 894.672L2644 966.001ZM2667.18 894.672C2682.24 899.566 2695.37 909.104 2704.68 921.917L2644 966.001L2667.18 894.672Z" fill="#5E5E5E"/>
            <text transform="translate(2605 1080)" fill="white" style="white-space: pre" xml:space="preserve" font-family="Share Tech Mono" font-size="48" letter-spacing="0em"><tspan x="0.117188" y="42.432">BFP</tspan></text>
        </g>

        <g id="ECONOMIZER">
            <rect id="eco bars" x="1675" y="879" width="507" height="298" fill="#1E1C1C"/>
            <path id="bar ECO" d="M2182 1162C2182 1170.28 2175.28 1177 2167 1177H1690C1681.72 1177 1675 1170.28 1675 1162V1137C1675 1128.72 1681.72 1122 1690 1122H2167C2175.28 1122 2182 1128.72 2182 1137V1162ZM2182 1081C2182 1089.28 2175.28 1096 2167 1096H1690C1681.72 1096 1675 1089.28 1675 1081V1056C1675 1047.72 1681.72 1041 1690 1041H2167C2175.28 1041 2182 1047.72 2182 1056V1081ZM2182 1000C2182 1008.28 2175.28 1015 2167 1015H1690C1681.72 1015 1675 1008.28 1675 1000V975C1675 966.716 1681.72 960 1690 960H2167C2175.28 960 2182 966.716 2182 975V1000ZM2182 919C2182 927.284 2175.28 934 2167 934H1690C1681.72 934 1675 927.284 1675 919V894C1675 885.716 1681.72 879 1690 879H2167C2175.28 879 2182 885.716 2182 894V919Z" fill="url(#paint2_linear_1874_211)"/>
            <text fill="#90EAE6" style="white-space: pre" xml:space="preserve" font-family="Share Tech Mono" font-size="48" letter-spacing="0em"><tspan x="1797" y="1253.43">ECONOMIZER</tspan></text>
        </g>

        <g id="SUPERHEATER">
            <rect id="eqp SH" x="840" y="336" width="1344" height="421" rx="35" stroke="#FA6464" stroke-opacity="0.5" stroke-width="3"/>
            <path id="bar SH" d="M2139 662C2139 670.284 2132.28 677 2124 677H899C890.716 677 884 670.284 884 662V637C884 628.716 890.716 622 899 622H2124C2132.28 622 2139 628.716 2139 637V662ZM2139 581C2139 589.284 2132.28 596 2124 596H899C890.716 596 884 589.284 884 581V556C884 547.716 890.716 541 899 541H2124C2132.28 541 2139 547.716 2139 556V581ZM2139 500C2139 508.284 2132.28 515 2124 515H899C890.716 515 884 508.284 884 500V475C884 466.716 890.716 460 899 460H2124C2132.28 460 2139 466.716 2139 475V500ZM2139 419C2139 427.284 2132.28 434 2124 434H899C890.716 434 884 427.284 884 419V394C884 385.716 890.716 379 899 379H2124C2132.28 379 2139 385.716 2139 394V419Z" fill="url(#paint1_linear_1874_211)"/>
            <text fill="#FFB7B7" style="white-space: pre" xml:space="preserve" font-family="Share Tech Mono" font-size="48" letter-spacing="0em"><tspan x="1369" y="732.432">SUPERHEATER</tspan></text>
        </g>

        <g id="DEAERATOR">
            <rect id="eqp DEA" x="2408.5" y="504.5" width="471" height="171" rx="85.5" stroke="#39747B" stroke-width="3"/>
            <text fill="#90EAE6" style="white-space: pre" xml:space="preserve" font-family="Share Tech Mono" font-size="48" letter-spacing="0em"><tspan x="2510" y="605.432">DEAERATOR</tspan></text>
        </g>

        <g id="COAL FEEDER">
            <path id="eqp CF" d="M302 1806.9L343.506 1766H511V1993H343.506L302 1961.59V1806.9Z" fill="#3A3A3A" stroke="#3A3A3A" stroke-width="3"/>
            <text transform="translate(332 1825)" fill="#D2D2D2" style="white-space: pre" xml:space="preserve" font-family="Share Tech Mono" font-size="48" letter-spacing="0em"><tspan x="30.6562" y="42.432">COAL </tspan><tspan x="4.73438" y="96.432">FEEDER</tspan></text>
        </g>

        <text id="FURNACE" fill="white" style="white-space: pre" xml:space="preserve" font-family="Share Tech Mono" font-size="48" letter-spacing="0em"><tspan x="951.273" y="1335.43">FURNACE</tspan></text>

        <g id="AIR HEATER">
            <rect id="eqp APH" x="2062" y="1605" width="473" height="323" rx="25" fill="#1E1C1C" stroke="#1EC435" stroke-width="3"/>
            <path id="bar APH" d="M2479.36 1639C2485.99 1639 2491.36 1644.37 2491.36 1651L2491.36 1814C2491.36 1820.63 2485.99 1826 2479.36 1826L2464.18 1826C2457.55 1826 2452.18 1820.63 2452.18 1814L2452.18 1651C2452.18 1644.37 2457.55 1639 2464.18 1639L2479.36 1639ZM2421.18 1639C2427.81 1639 2433.18 1644.37 2433.18 1651L2433.18 1814C2433.18 1820.63 2427.81 1826 2421.18 1826L2406 1826C2399.37 1826 2394 1820.63 2394 1814L2394 1651C2394 1644.37 2399.37 1639 2406 1639L2421.18 1639ZM2363 1639C2369.63 1639 2375 1644.37 2375 1651L2375 1814C2375 1820.63 2369.63 1826 2363 1826L2347.82 1826C2341.19 1826 2335.82 1820.63 2335.82 1814L2335.82 1651C2335.82 1644.37 2341.19 1639 2347.82 1639L2363 1639ZM2305.3 1639C2311.92 1639 2317.3 1644.37 2317.3 1651L2317.3 1814C2317.3 1820.63 2311.92 1826 2305.3 1826L2290.11 1826C2283.49 1826 2278.11 1820.63 2278.11 1814L2278.11 1651C2278.11 1644.37 2283.49 1639 2290.11 1639L2305.3 1639ZM2247.59 1639C2254.22 1639 2259.59 1644.37 2259.59 1651L2259.59 1814C2259.59 1820.63 2254.22 1826 2247.59 1826L2232.41 1826C2225.78 1826 2220.41 1820.63 2220.41 1814L2220.41 1651C2220.41 1644.37 2225.78 1639 2232.41 1639L2247.59 1639ZM2189.89 1639C2196.51 1639 2201.89 1644.37 2201.89 1651L2201.89 1814C2201.89 1820.63 2196.51 1826 2189.89 1826L2174.71 1826C2168.08 1826 2162.71 1820.63 2162.71 1814L2162.71 1651C2162.71 1644.37 2168.08 1639 2174.71 1639L2189.89 1639ZM2132.18 1639C2138.81 1639 2144.18 1644.37 2144.18 1651L2144.18 1814C2144.18 1820.63 2138.81 1826 2132.18 1826L2117 1826C2110.37 1826 2105 1820.63 2105 1814L2105 1651C2105 1644.37 2110.37 1639 2117 1639L2132.18 1639Z" fill="url(#paint3_linear_1874_211)"/>
            <text fill="#75EA83" style="white-space: pre" xml:space="preserve" font-family="Share Tech Mono" font-size="48" letter-spacing="0em"><tspan x="2128" y="1898.43">AIR PREHEATER</tspan></text>
        </g>

        <g id="ESP">
            <path id="PETIR" d="M2662.36 2075.47L2646.34 2168.59L2671.81 2165.93L2628.9 2261.87L2652.66 2174.33L2631.61 2176.53L2662.36 2075.47Z" fill="url(#paint5_linear_1874_211)"/>
            <rect x="2730" y="2069" width="16" height="200" rx="6" fill="#9E3995"/>
            <rect x="2547" y="2069" width="16" height="200" rx="6" fill="#9E3995"/>
            <text fill="#E274D9" style="white-space: pre" xml:space="preserve" font-family="Share Tech Mono" font-size="48" letter-spacing="0em"><tspan x="2608" y="2348.43">ESP</tspan></text>
        </g>

        <g id="ID FAN">
            <circle cx="3057" cy="2161" r="100" fill="#1E1C1C" stroke="#5E5E5E" stroke-width="3"/>
            <path id="blade IDF" d="M3080.18 2232.33C3065.11 2237.22 3048.89 2237.22 3033.82 2232.33L3057 2161L3080.18 2232.33ZM2996.32 2205.08C2987.01 2192.27 2982 2176.84 2982 2161H3057L2996.32 2205.08ZM3132 2161C3132 2176.84 3126.99 2192.27 3117.68 2205.08L3057 2161H3132ZM3057 2161L2996.32 2116.92C3005.63 2104.1 3018.76 2094.57 3033.82 2089.67L3057 2161ZM3080.18 2089.67C3095.24 2094.57 3108.37 2104.1 3117.68 2116.92L3057 2161L3080.18 2089.67Z" fill="#5E5E5E"/>
            <text transform="translate(2979 2270)" fill="white" style="white-space: pre" xml:space="preserve" font-family="Share Tech Mono" font-size="48" letter-spacing="0em"><tspan x="0.234375" y="42.432">ID FAN</tspan></text>
        </g>

        <g id="CHIMNEY">
            <rect id="Rectangle 530" x="3304" y="1886" width="130" height="400" fill="#A6A6A6"/>
            <rect id="Rectangle 542" x="3304" y="1735" width="130" height="151" fill="#BC4747"/>
            <rect id="Rectangle 543" x="3304" y="1524" width="130" height="211" fill="#A6A6A6"/>
            <rect id="Rectangle 544" x="3304" y="1373" width="130" height="151" fill="#BC4747"/>
            <rect id="Rectangle 545" x="3304" y="1271" width="130" height="102" fill="#A6A6A6"/>
            <rect id="Rectangle 550" x="3304" y="1281" width="130" height="92" fill="#A6A6A6"/>
            <rect id="Rectangle 546" x="3304" y="895" width="130" height="64" fill="#BC4747"/>
            <rect id="Rectangle 551_2" x="3304" y="1207" width="130" height="64" fill="#BC4747"/>
            <rect id="Rectangle 547" x="3304" y="1115" width="130" height="92" fill="#A6A6A6"/>
            <rect id="Rectangle 549" x="3304" y="827" width="130" height="68" fill="#A6A6A6"/>
            <rect id="Rectangle 552_2" x="3304" y="959" width="130" height="92" fill="#A6A6A6"/>
            <rect id="Rectangle 548" x="3304" y="1051" width="130" height="64" fill="#BC4747"/>
        </g>

        <g id="STEAMWATER_LINES">
            <path id="LINE yellow MAIN STEAM" d="M1806.58 353.498L1806.58 205.5L1857.5 159.725L2012 159.725" stroke="#FFF600" stroke-width="6"/>
            <path id="LINE red DRUM to SUPER" d="M725.997 247.499L792.998 180.498L926.498 180.498L1050.5 304.5" stroke="#D63C3C" stroke-width="6"/>
            <path id="LINE blue WATER WALL LEFT" d="M562 530L562 1703" stroke="#0066FF" stroke-width="6"/>
            <path id="LINE blue DOWNCOMER" d="M651.549 509.5L651.549 774.89L1521 1050.5L1521 1926L1470 1993.36L562 1993.36L562 1702L468.998 1615.63L468.998 509.5" stroke="#0066FF" stroke-width="6"/>
            <path id="LINE blue ECO to DRUM" d="M2213.5 965.5L2273.5 905.5L2273.5 308.001L2220 241.501L1090.5 241.499L959.501 111L765.501 111L682.501 187.501" stroke="#0066FF" stroke-width="6"/>
            <path id="LINE blue BFP to ECO" d="M2574.5 1043.5L2518.5 1120L2211 1120" stroke="#0066FF" stroke-width="6"/>
            <path id="LINE blue DEA to BFP" d="M2644 682L2644 861" stroke="#0066FF" stroke-width="6"/>
            <path id="LINE blue WATER TANK" d="M2789.67 428.999L2711.67 428.999L2642.35 498.315" stroke="#0066FF" stroke-width="6"/>
        </g>

        <g id="AIRGAS_LINES">
            <path id="LINE green APH to FURN" d="M2057 1766L1583 1766" stroke="#41BA4F" stroke-width="6"/>
            <path id="LINE green FD FAN to APH" d="M2179 2153.5L2236 2096.5L2236 1934.5" stroke="#41BA4F" stroke-width="6"/>
            <path id="LINE green AMBIENT AIR" d="M1843 2129.5L1843 2175L1897.5 2231L2001.5 2231" stroke="#41BA4F" stroke-width="6"/>
            <path id="LINE pink CHIMNEY" d="M3161 2161H3298" stroke="#D37FCC" stroke-width="6"/>
            <path id="LINE pink ESP to ID FAN" d="M2820 2161H2954" stroke="#D37FCC" stroke-width="6"/>
            <path id="LINE pink APH to ESP" d="M2350.5 1934.5L2350.5 2096.5L2398 2157.68L2472.9 2157.68" stroke="#D37FCC" stroke-width="6"/>
            <path id="LINE pink ECO to APH" d="M2213.5 1238L2310 1294L2310 1595.5" stroke="#D37FCC" stroke-width="6"/>
        </g>

        <g id="COALASH_LINES">
            <path id="LINE brown FLY ASH" d="M2648.26 2421.91L2702.79 2481.9L2820.5 2481.9" stroke="#806341" stroke-width="6"/>
            <path id="LINE brown BOTTOM ASH" d="M1046.25 2501.34L1100.79 2561.34L1218.5 2561.34" stroke="#806341" stroke-width="6"/>
            <path id="LINE orange COAL" d="M318.001 1504.21L379.09 1565.3L379.09 1762.71" stroke="#DB7241" stroke-width="6"/>
        </g>

        <defs>
            <linearGradient id="paint5_linear_1874_211" x1="2636.18" y1="2078.2" x2="2655.08" y2="2259.13" gradientUnits="userSpaceOnUse">
                <stop stop-color="#DC3CCF"/>
                <stop offset="1" stop-color="#75226E"/>
            </linearGradient>
            <linearGradient id="paint0_linear_1874_211" x1="561" y1="363.5" x2="561" y2="434" gradientUnits="userSpaceOnUse">
                <stop stop-color="#091940"/>
                <stop offset="1" stop-color="#1B46AB"/>
            </linearGradient>
            <linearGradient id="paint1_linear_1874_211" x1="1442.5" y1="389.5" x2="1460" y2="713" gradientUnits="userSpaceOnUse">
                <stop stop-color="#D63D3D"/>
                <stop offset="1" stop-color="#5D1B1B"/>
            </linearGradient>
            <linearGradient id="paint2_linear_1874_211" x1="1928.5" y1="879" x2="1928.5" y2="1177" gradientUnits="userSpaceOnUse">
                <stop stop-color="#41BAB2"/>
                <stop offset="1" stop-color="#344C5B"/>
            </linearGradient>
            <linearGradient id="paint3_linear_1874_211" x1="2115.5" y1="1692.37" x2="2477.75" y2="1821.27" gradientUnits="userSpaceOnUse">
                <stop stop-color="#41BA4F"/>
                <stop offset="1" stop-color="#195B23"/>
            </linearGradient>
            <radialGradient id="paint4_radial_1874_211" cx="0" cy="0" r="1" gradientUnits="userSpaceOnUse" gradientTransform="translate(1042 2072.5) rotate(-90) scale(1188 923.709)">
                <stop stop-color="#EF7B45"/>
                <stop offset="1" stop-color="#1E1C1C" stop-opacity="0"/>
            </radialGradient>
            <clipPath id="clip0_1874_211">
                <rect width="3600" height="2769" fill="white"/>
            </clipPath>
        </defs>
    </g>
</svg>